<svg width="18" height="18" viewBox="0 0 18 18" fill="none" xmlns="http://www.w3.org/2000/svg">
<path d="M9.00023 15H15.7502M12.2822 2.71655C12.5808 2.41798 12.9857 2.25024 13.408 2.25024C13.8302 2.25024 14.2352 2.41798 14.5337 2.71655C14.8323 3.01511 15 3.42006 15 3.8423C15 4.26453 14.8323 4.66948 14.5337 4.96805L5.52623 13.9763C5.3478 14.1547 5.12724 14.2852 4.88498 14.3558L2.73098 14.9843C2.66644 15.0031 2.59803 15.0042 2.53291 14.9876C2.46779 14.9709 2.40835 14.937 2.36081 14.8895C2.31328 14.8419 2.27939 14.7825 2.26271 14.7174C2.24602 14.6522 2.24715 14.5838 2.26598 14.5193L2.89448 12.3653C2.96514 12.1233 3.09566 11.903 3.27398 11.7248L12.2822 2.71655Z" stroke="black" stroke-width="1.13" stroke-linecap="round" stroke-linejoin="round"/>
</svg>
