<svg width="120" height="90" viewBox="0 0 120 90" fill="none" xmlns="http://www.w3.org/2000/svg">
<path d="M100 85C102.652 85 105.196 83.9464 107.071 82.0711C108.946 80.1957 110 77.6522 110 75V25C110 22.3478 108.946 19.8043 107.071 17.9289C105.196 16.0536 102.652 15 100 15H60.5C58.8276 15.0164 57.1777 14.6131 55.7015 13.8269C54.2253 13.0407 52.9698 11.8969 52.05 10.5L48 4.5C47.0895 3.11735 45.8499 1.98239 44.3925 1.19698C42.9351 0.411569 41.3055 0.000272607 39.65 0H20C17.3478 0 14.8043 1.05357 12.9289 2.92893C11.0536 4.8043 10 7.34784 10 10V75C10 77.6522 11.0536 80.1957 12.9289 82.0711C14.8043 83.9464 17.3478 85 20 85H100Z" fill="url(#paint0_linear_316_1144)"/>
<defs>
<linearGradient id="paint0_linear_316_1144" x1="60" y1="0" x2="60" y2="85" gradientUnits="userSpaceOnUse">
<stop stop-color="#FFE460"/>
<stop offset="1" stop-color="#FFB718"/>
</linearGradient>
</defs>
</svg>
